<?xml version="1.0" encoding="utf-8"?>
<!-- Generator: Adobe Illustrator 16.0.0, SVG Export Plug-In . SVG Version: 6.00 Build 0)  -->
<!DOCTYPE svg PUBLIC "-//W3C//DTD SVG 1.1//EN" "http://www.w3.org/Graphics/SVG/1.1/DTD/svg11.dtd">
<svg version="1.1" id="レイヤー_1" xmlns="http://www.w3.org/2000/svg" xmlns:xlink="http://www.w3.org/1999/xlink" x="0px"
	 y="0px" width="18px" height="18px" viewBox="3 3 18 18" enable-background="new 3 3 18 18" xml:space="preserve">
<path fill="#0080E2" d="M18,19H6c-0.55,0-1-0.45-1-1V6c0-0.55,0.45-1,1-1h5c0.55,0,1-0.45,1-1s-0.45-1-1-1H5C3.89,3,3,3.9,3,5v14
	c0,1.1,0.9,2,2,2h14c1.1,0,2-0.9,2-2v-6c0-0.55-0.45-1-1-1s-1,0.45-1,1v5C19,18.55,18.55,19,18,19z M14,4c0,0.55,0.45,1,1,1h2.59
	l-9.13,9.13c-0.39,0.39-0.39,1.021,0,1.41s1.02,0.39,1.41,0L19,6.41V9c0,0.55,0.45,1,1,1s1-0.45,1-1V4c0-0.55-0.45-1-1-1h-5
	C14.45,3,14,3.45,14,4z"/>
</svg>
