<?xml version="1.0" encoding="utf-8"?>
<!-- Generator: Adobe Illustrator 16.0.0, SVG Export Plug-In . SVG Version: 6.00 Build 0)  -->
<!DOCTYPE svg PUBLIC "-//W3C//DTD SVG 1.1//EN" "http://www.w3.org/Graphics/SVG/1.1/DTD/svg11.dtd">
<svg version="1.1" id="レイヤー_1" xmlns="http://www.w3.org/2000/svg" xmlns:xlink="http://www.w3.org/1999/xlink" x="0px"
	 y="0px" width="300px" height="300px" viewBox="0 0 300 300" enable-background="new 0 0 300 300" xml:space="preserve">
<g>
	<path fill="#55C500" d="M222.769,227.358c-16.181,17.258-38.166,22.936-64.778,25.627c-53.887,5.449-100.569-18.615-106.222-78.744
		c-2.404-25.562,3.285-49.862,14.755-69.775l-6.678-26.261c-1.078-4.566,3.123-8.908,7.572-7.828l23.069,5.6
		c13.718-11.264,30.312-18.625,48.616-20.475c15.657-1.583,30.837,1.042,44.638,7.03l21.684-13.117
		c4.081-2.469,9.248,0.322,9.637,5.204l1.251,30.935c16.677,17.607,28.031,41.65,30.599,68.954
		c1.45,15.422-0.15,27.219-4.238,38.474c-1.914,5.268-2.49,9.723,0.97,14.132c3.343,4.261,8.644,12.531,14.555,11.145
		c8.884-2.083,18.397-1.527,24.277,2.145C293.655,199.407,300,175.446,300,150C300,67.157,232.843,0,150,0S0,67.157,0,150
		c0,82.842,67.157,150,150,150c42.48,0,80.831-17.663,108.123-46.04c-4.787-0.719-9.684-2.578-14.334-5.678
		C234.858,242.328,226.933,236.704,222.769,227.358"/>
	<path fill="#55C500" d="M208.921,117.383l14.009-1.717l-0.198-2.524l-14.372,1.762c-0.617-1.817-1.313-3.592-2.082-5.326
		l15.832-5.051l-0.497-3.169l-16.839,5.833c-11.295-23.681-35.717-38.058-63.366-35.262c-27.605,2.791-49.463,22.668-56.17,48.105
		l-16.47-2.495l-0.176,3.237l16.217,1.757c-0.439,1.871-0.803,2.98-1.075,4.904l-14.148,1.129l0.128,2.531l13.79-1.101
		c-0.242,2.141-0.388,3.518-0.415,5.707l-12.598,5.151l0.618,3.123l11.997-5.615c0.028,1.673,0.1,2.566,0.259,4.259
		c3.335,35.463,32.956,42.476,68.347,38.897c35.39-3.579,63.147-16.394,59.813-51.857c-0.159-1.702-0.403-2.586-0.69-4.242
		l12.996,2.823l0.302-2.862l-13.63-2.589C210.073,120.683,209.546,119.404,208.921,117.383"/>
</g>
</svg>
